<?xml version="1.0" standalone="no"?>
<!DOCTYPE svg PUBLIC "-//W3C//DTD SVG 20010904//EN"
 "http://www.w3.org/TR/2001/REC-SVG-20010904/DTD/svg10.dtd">
<svg version="1.0" xmlns="http://www.w3.org/2000/svg"
 width="1024.000000pt" height="1024.000000pt" viewBox="0 0 1024.000000 1024.000000"
 preserveAspectRatio="xMidYMid meet">

<g transform="translate(0.000000,1024.000000) scale(0.100000,-0.100000)"
fill="#000000" stroke="none">
<path d="M0 5120 l0 -5120 5120 0 5120 0 0 5120 0 5120 -5120 0 -5120 0 0
-5120z m5425 3770 c1059 -89 1963 -552 2631 -1345 350 -416 623 -954 759
-1495 81 -321 110 -569 109 -935 0 -300 -13 -448 -60 -705 -227 -1242 -1088
-2303 -2270 -2799 -943 -395 -2069 -383 -3018 33 -438 192 -806 445 -1157 795
-436 436 -740 931 -927 1511 -122 378 -175 723 -175 1155 0 271 10 405 49 645
193 1179 950 2212 2012 2744 436 218 950 361 1427 395 163 12 483 12 620 1z"/>
<path d="M4810 8653 c-347 -34 -564 -77 -845 -170 -1225 -404 -2145 -1465
-2365 -2729 -68 -390 -67 -888 1 -1274 96 -544 313 -1048 641 -1484 614 -819
1534 -1335 2546 -1426 176 -16 656 -8 811 14 578 83 1065 269 1536 587 631
426 1122 1061 1366 1768 174 502 234 1059 173 1601 -111 984 -659 1905 -1472
2477 -506 355 -1065 563 -1690 627 -138 15 -590 20 -702 9z m371 -1449 c52
-15 75 -36 662 -622 335 -334 615 -619 623 -634 37 -70 1 -161 -72 -187 -87
-31 -64 -49 -626 515 l-513 516 -5 -1895 -5 -1895 -24 -26 c-53 -57 -149 -57
-202 0 l-24 26 -3 1896 -2 1897 -513 -519 -512 -519 -50 -4 c-38 -3 -58 1 -83
16 -63 40 -88 112 -58 169 19 35 1223 1236 1256 1253 20 10 60 22 91 28 3 1
30 -6 60 -15z"/>
</g>
</svg>
